<svg width="1200" height="1200" xmlns="http://www.w3.org/2000/svg"><g xmlns="http://www.w3.org/2000/svg"><path d="M346.82 685.75v19.325q0 1.674 1.641 1.58 17.242-.759 29.779 13.83 1.042 1.232 2.337.316 17.873-12.505 37.736-13.736 2.242-.158.82 1.547c-12.63 15.19-30.788 33.126-51.283 19.61q-8.431-5.558-12.126-7.326-1.484-.726-2.779.316-21.536 17.4-2.873 37.862a2.337 2.274-51.6 01.284 2.716q-2.021 3.537.505 6.979a2.684 2.684 0 01.032 3.126q-2.463 3.41-5.558 5.242a2.337 2.337 0 00-.158 3.916l5.937 4.2q1.105.79 1.105 2.179-3.473 207.217-4.99 313.573c-.252 15.884-2.21 25.2-9.883 38.273a1.484 1.484 0 01-2.463.126q-9.884-13.673-10.074-30.789-2.147-182.554-4.642-321.12-.031-1.453 1.169-2.274l5.684-3.82a2.653 2.653 0 00-.285-4.58q-2.336-1.2-4.105-3.505-.884-1.137-.758-2.59l1.2-11.652a1.768 1.737 73.9 01.695-1.263c3.695-2.81 8.116-8.905 7.168-14.052q-.568-3.063.727-7.168a3.41 3.347 35 00-.537-2.969l-10.2-13.168a2.558 1.579-29.8 00-2.684-.095c-9.979 4.895-21.979 18.095-37.42 10.926-12.98-6.031-17.937-13.736-26.621-22.104q-2.526-2.464.979-2.148 19.768 1.832 38.304 14.179a1.674 1.674 0 002.274-.41q11.526-15.38 30.031-13.927 1.832.127 1.832-1.673v-7.548q0-1.736-1.61-2.431-5.148-2.21-2.053-9.095a1.832 1.8 21.1 00-1.106-2.463c-4.484-1.42-7.263-2.842-8.115-8.273q-3.063-19.484-3.127-19.99c-1.168-7.61 7.61-14.115 13.484-19.357a2.147 2.147 0 00.569-2.337l-2.148-5.558a.537.505-43.2 01.032-.505q4.832-7.294 5.242-10.294c.663-5.084-4.168-8.716-5.431-12.38q-.6-1.8.852-3.599.948-1.168.316-2.526c-4.516-10.042 4.42-23.968 10.326-31.515a1.547 1.547 0 012.432.031c6.473 8.526 13.8 19.547 12.094 29.589q-.663 3.884-.852 9.947-.064 1.453-1.453 1.895l-2.147.663q-1.485.442-1.2 1.958 1.042 5.431 1.042 6 .537 13.547 6.536 1.231 6.663-13.642 10.39-30.852 4.39-20.21 11.21-57.251c3.41-18.442 13.673-36.568 25.547-57.568 6.979-12.41 9.726-35.083 13.547-47.115 5.874-18.441 11.305-31.925 13.484-48.283 1.895-13.99 1.105-31.041 6.82-47.525q9.632-27.884 38.116-35.179 4.295-1.105 6.22-4.61c3.096-5.653.854-23.02.254-29.715-1.2-13.453 2.431-16.768 12.157-24.316q1.295-1.01 1.074-2.62c-.979-7.643.568-14.306 7.168-18.316 7.99-4.926 16.705-10.768 10.547-21.568a5.653 5.59-59.8 01-.758-2.937c.064-5.558-3.189-13.99-4.042-18.789-3.789-21.694 4.106-53.462 28.484-61.673q2.905-.978 32.336-11.115c6.253-2.179 14.495 2.337 20.4 5.937q7.926 4.863 10.452 13.326.443 1.515 1.99 1.358c21.189-1.99 25.641 14.62 21.094 31.452q-.537 1.989-2.526 2.336l-4.39.821q-1.547.285-1.484 1.832.221 10.2 3 17.052.632 1.548-1.01 1.832l-4.516.852q-2.431.443-.947 2.432l8.905 12.126a3.095 3.063 59.3 01-1.169 4.642q-3.189 1.453-5.052 3.347-1.295 1.295-.19 2.748 3.474 4.61-.568 6.726a2.147 2.147 0 00-.916 2.842q2.148 4.358-2.305 5.59a2.747 2.716 77.2 00-1.958 3.126l1.295 7.01a5.747 5.747 0 01-6.253 6.758l-22.989-2.337a1.326 1.326 0 00-1.452 1.168c-1.642 15.316-1.484 46.894 23.747 42.568q15.726-2.684 18.726-4.263c14.62-7.547 27.03-12.19 43.388-13.137q14.432-.82 18.379-2.4 40.83-16.262 76.893-25.136a8.431 8.147 64.5 004.39-13.073q-.821-1.106-1.106-3.821-.031-.38.38-3.853.347-3.032-2.274-4.737-7.2-4.705-4.169-10.926 1.074-2.179-1.263-1.547-15.031 3.947-19.357-9.221a5.747 5.716-42.5 01.19-4.105q1.989-4.674 3.694-4.927 1.8-.284 2.116 1.485l.631 3.473a3.158 3.126 6.4 001.832 2.274q5.873 2.526 10.01.537 11.716-5.59 25.61-11.59 6.979-3 28.894-4.8 8.874-.757 21.79-10.01 6.852-4.894 15.283-17.557c9.695-14.59 15.158-24.41 27.505-32.494a.979.979 0 00.221-1.453q-9.726-12.568 2.337-21.505 4.768-3.537 9.19-.505a8.242 7.895 27.8 013.125 9.379q-.19.505-1.263.631-1.516.19-2.052-1.231l-1.01-2.621a2.084 2.053-16.6 00-2.37-1.264q-1.168.253-2.02 1.264-1.58 1.894.158 3.631l3.631 3.632a4.99 4.958 46.2 006.884.158c7.769-7.074 1.674-14.274-2.494-21.284q-.98-1.642-.537-3.474c2.842-12.031 18.189-13.99 24.82-3.316q3.948 6.41-2.431 11.905-5.116 4.39-3.095 12.063.726 2.842-2.21 2.842h-7.832a1.484 1.421-72.2 00-1.2.664l-.537.757q-.094.158.095.19 6.442 1.074 12.347.063a3.474 3.442-13.2 013.884 2.4l8.842 28.61q.41 1.39-.063 2.779-7.39 20.715-25.768 35.462-1.326 1.042-.82 2.685 1.483 4.768.062 9.22-.631 1.99.127 3.916l42.094 109.04q.284.758 1.073.758h13.8q1.642 0 1.232 1.579c-7.074 27.252-31.105 39.82-57.094 42-31.452 2.652-68.715-4.737-78.346-40.137q-.663-2.4 1.832-2.4h13.452a1.958 1.926-79.5 001.8-1.263l35.62-95.43q2.21-5.905-1.863-1.073-24.536 28.894-53.052 48.82c-11.368 7.957-22.61 12.789-39.157 21q-1.547.757-1.2 2.462 1.2 5.937-.884 10.2-.758 1.516-.095 3.063 1.927 4.737 2.021 11.432a1.232 1.263 9.6 01-1.673 1.2l-1.105-.41q-1.548-.6-1.232-2.211.6-2.81.158-3.537-3.347-5.684-2.116 1.01c2.147 12 17.242 14.463 10.579 29.526q-.695 1.548-.032 3.095 21 51.062 40.231 106.514c.474 1.358.284 2.052.442 3.41q.127 1.358 1.01 1.358l15.79-.063a1.642 1.674 7.5 011.61 2.116c-8.842 30.567-35.652 41.304-66.914 42.251-30.82.885-62.336-9.947-70.767-41.304a1.8 1.8 0 011.737-2.274h14.841q1.58 0 2.116-1.484l41.273-110.493q.41-1.105-.032-2.178l-2.21-5.78q-.632-1.61-.253-3.315 1.232-5.463 6.316-11.905 1.042-1.326 1.958.126 2.305 3.6 3.126 4.169 1.674 1.136 1.484-.664-.284-2.968-3.347-4.389-1.453-.663-2.084-2.147-2.305-5.305-1.8-10.105a1.99 1.99 0 011.484-1.737q.568-.158.884-.253.884-.316.6-1.231l-2.873-9.316q-.442-1.453-1.8-.726-40.073 21.6-83.525 35.083c-14.052 4.39-19.294 8.4-25.547 20.558q-.632 1.2.347 2.147l14.4 14.431a4.895 4.863-54.7 01.947 5.621q-6.978 14.21-7.673 29.905c-.221 5.4 1.547 12.095 1.895 18.252q.094 1.61-.916 2.842c-5.684 6.948-16.2 14.78-7.642 24q1.074 1.137.41 2.558-12.063 25.231-13.768 33.757-5.305 26.747.41 52.325 3.095 13.8 3.253 22.358c.348 19.294-3.6 44.462 12.19 66.725q.947 1.326.789 2.968l-1.832 18.032q-.157 1.673.758 3.063 14.116 21.284 35.273 44.715c40.705 45.157 105.251 77.588 156.155 24.347q2.463-2.558 1.99.947-9.853 75.22-30.284 152.302c-1.926 7.295-10.263 23.968-20.968 13.326q-6.916-6.82-8.873-10.578-3.727-7.105-6.38-10.105-1.515-1.737-1.42.568.726 21.505-4.642 38.21-.537 1.674.82 2.747c9.348 7.484 17.274 13.674 20.906 25.073 3.284 10.39-3.127 17.558-9.663 25.863q-12.347 15.663-26.81 18.726a2.116 2.053-72.6 00-1.042.568l-31.01 29.337a2.179 2.179 0 01-3.063-.032c-7.895-7.926-19.58-3.726-30.347-.316-18.947 5.969-36.41 7.074-55.768 1.642q-4.263-1.2-16.041.443-1.674.252-1.927 1.926c-1.831 13.136-3.284 38.652 5.684 48.662 8.116 9.032 12.126 13.39 12.158 23.937q0 1.452 1.453 1.452h97.64q2.716 0 .79 1.926l-15.064 15.095a2.842 2.779 68.4 00-.852 2.02v30.316a3.884 3.884 0 001.137 2.747l15.852 15.853q1.137 1.105-.474 1.105H373.156a.758.758 0 01-.537-1.326l15.252-15.253q1.169-1.2 1.169-2.873v-30.252q0-1.548-1.106-2.653l-14.494-14.494q-2.147-2.148.884-2.148h78.756a.979.979 0 00.916-1.326q-.22-.6-1.105-.947-10.263-4.074-19.831-6.158a1.263 1.263 0 01-.98-1.453q3.632-22.61 7.674-42.062c3.821-18.284 12.6-40.136 19.642-59.62 2.21-6.158 2.305-17.968 1.61-26.273q-2.747-32.115 6.474-69.094c3.316-13.326.821-23.873-2.242-39.82q-3.347-17.337-10.358-34.61-5.652-14.02-18.536-17.557a3.537 3.537 0 01-2.558-3.885q6.347-44.494 8.337-83.335 2.116-40.894-26.242-62.367-.979-.726-1.168-1.958l-5.21-35.81q-.253-1.863 1.073-3.158 34.073-33.6 66.062-74.935 7.895-10.2 9.694-16.737c6.758-24.347 3.19-39.567-18.473-53.493a2.684 2.653-64 01-1.074-3.158l13.358-35.715a3.032 3-69.8 00-1.768-3.885l-1.58-.6a2.368 2.368 0 00-3.03 1.39q-12.064 32.81-23.463 68.114-1.106 3.506-14.242 35.558-4.042 9.852-7.358 24.315-6.158 26.873-20.368 51.504c-13.99 24.19-22.39 38.179-31.547 60.094-3.41 8.242-4.39 24.568-8.937 30.284q-8.115 10.2-9.441 12-.885 1.168-.98 2.684l-.82 13.515a7.01 8.084-.2 01-6.41 7.453q-.948.063-2.053-1.864-1.327-2.242-1.327.38M893.504 72.781l6.79-2.905a1.421 1.421 0 00.726-1.895l-.19-.474a5.937 4.579 66.7 00-6.568-3.663l-.98.442a5.937 4.579 66.7 00-1.862 7.263l.22.505a1.421 1.421 0 001.864.727m-1.705 31.01q-.032 1.768 8.842 1.926 1.768.032 1.8-1.8 0-1.863-1.769-1.895-8.873-.031-8.873 1.769m-322.92 12.252q1.105.348.505 2.305a2.21 2.21 0 01-.474.79q-8.716 8.62-25.8 9.031a.726.726 0 00-.158 1.421c9.695 2.305 21.726-1.263 29.242-6.79a8.242 8.21 62.2 002.874-9.315l-.632-1.8q-1.737-4.989-5.273-1.073-5.116 5.652-12.063 8.684-.19.063-.095.22l.379.695q.095.158.884-.031 5.653-1.453 9.568-4.042.38-.284 1.042-.095m323.49-4.358l.22 1.137q.032.253.284.284l13.358 2.116a.79.821 8.2 00.947-.726l.095-.853q.126-1.105-.979-1.231l-13.326-1.358q-.726-.063-.6.631M584.51 122.74q-.442 1.673-.38 1.99.759 5.841 3.506.63 3.663-6.915-4.484-12.536-2.116-1.452-1.01.853c1.673 3.505 3.157 6.126 2.368 9.063m291.247-9.505a1.737 1.737 0 00-.19 2.968q1.863 1.326 3.285-.41a1.674 1.674 0 00-.443-2.527q-1.263-.758-2.652-.031m-108.472 88.893c2.21 8.715 3.569 10.736.063 17.273q-.82 1.579.632 2.59 1.737 1.168 2.937-.158c9.884-10.769 22.736-19.484 38.525-27.158 17.779-8.62 31.831-16.831 45.915-28.041q5.369-4.263 8.274-12.032 4.705-12.663 10.326-34.01a1.39 1.39 0 00-1.926-1.61q-3.38 1.642-6.158 5.968c-17.368 27.252-31.99 53.241-67.357 54q-15.442.315-20.873 1.357-1.642.316-1.832 1.99-1.042 9.884-7.831 17.115-1.105 1.168-.695 2.716m142.59-78.204a6.853 1.579 16.2 00-6.143-3.426 6.853 1.579 16.2 00-7.02-.395 6.853 1.579 16.2 006.142 3.426 6.853 1.579 16.2 007.02.395m-33.833 1.153q1.168 2.684 2.684 4.042 1.484 1.326 1.58-.664.125-3.663-2.938-4.768-2.336-.884-1.326 1.39m-265.7 12.852q1.768 5.495 1.863 5.652 1.231 1.674 1.452-.094c1.232-10.074-5.305-19.831-16.326-16.8q-.82.253-1.073 1.074-.127.505-.063 1.01.126 1.263 1.42 1.232c6.98-.316 10.611 1.484 12.727 7.926m267.412 1.295a2.558 1.926 69.6 00.915-3.073 2.558 1.926 69.6 00-2.696-1.724 2.558 1.926 69.6 00-.916 3.07 2.558 1.926 69.6 002.697 1.724m-337.39.347q2.779.22 5.558-.284.41-.095.663-.348.347-.379.41-.758.064-.694-.631-.757-2.905-.253-5.779-.474-2.905-.221-5.81-.38-.695-.03-.758.664.031.379.316.79.22.284.6.442 2.652.915 5.431 1.105m60.094 18.189q-36.315-.316-69.125 13.263-.127.063-.095.158l.19.979a.79.758-10.2 00.915.631q36.315-8.431 71.62-2.558 1.547.285 1.263-1.263l-1.926-10.484q-.253-1.42.158-2.81 1.294-4.232-.158-9.221-1.169-4.105-5.432-3.884-37.483 2.084-69.598 22.926-.474.315-.19.82l.41.727q.032.032.095 0c19.99-10.42 49.957-17.526 72.03-10.231q2.874.947-.157.947m275.11-9.568q-.22.82 2.116 2.842a1.2 1.2 0 001.99-.79q.189-1.705-.474-2.747-2.432-3.853-3.632.695m-335.488.01a5.842 1.168.4 00-5.833-1.21 5.842 1.168.4 00-5.851 1.127 5.842 1.168.4 005.832 1.21 5.842 1.168.4 005.852-1.128m336.846 9.846q-1.642 1.895-.537 4.01 1.042 1.99 2.18.032.978-1.673.094-3.757a1.042 1.042 0 00-1.737-.285m-.988 19.15a3.632 4.642 33.6 005.59-1.857 3.632 4.642 33.6 00-.456-5.874 3.632 4.642 33.6 00-5.589 1.857 3.632 4.642 33.6 00.455 5.873m-1.57 6.24h-1.042q-1.2-.031-1.61 1.137-16.831 49.83-41.778 105.882a.663.663 0 00.568.916l18.6.158q.442 0 .537-.442l25.61-106.545q.252-1.106-.885-1.106m8.432 4.927q1.39-2.906 1.99.284l19.736 102.345q.031.158.158.158l22.926-.347a.221.19-14.9 00.189-.284l-42.757-105.22a2.463 2.463 0 00-3.853-.978q-2.968 2.463-4.01 7.515-15.695 76.325-20.62 98.777-.19.853.662.853h43.42a1.137 1.137 0 001.106-1.358q-13.705-61.483-19.42-92.398-1.106-6.032.473-9.347m-122.145 1.957l2.842 3.064a.821.821 0 001.168.063l.348-.348a9.347 2.653-42.8 005.052-8.305l-.316-.379a9.347 2.653-42.8 00-8.684 4.421l-.347.348a.821.821 0 00-.063 1.136m1.39 20.305q-.253 2.18 1.325 3.79a1.642 1.642 0 002.78-.884q.347-2.21-1.485-3.885a1.579 1.579 0 00-2.62.98m-271.701 33.125l1.453 1.516a.6.6 0 00.852 0l1.832-1.769a30.536 1.263-44.1 0021.03-22.136l-.536-.568a30.536 1.263-44.1 00-22.8 20.368l-1.8 1.736a.6.6 0 00-.031.853M762.706 224.8q-.82.695-.315 1.61.347.632 1.705.537 1.2-.063 1.579-1.231.19-.569-.095-1.137-.347-.726-.916-.695-.916 0-1.958.916m-245.986 5.204a15.694 1.8-43.2 00-12.672 9.433 15.694 1.8-43.2 00-10.21 12.053 15.694 1.8-43.2 0012.673-9.432 15.694 1.8-43.2 0010.21-12.054m246.743 38.343q-.726 1.263.126 2.81a1.39 1.39 0 001.927.537q1.99-1.169.41-3.442a1.453 1.453 0 00-2.463.095M572.7 287.64l.884 3.095a.79.79 0 001.011.536l.537-.157a30.347 2.147-16.3 0028.515-10.58l-.126-.504a30.347 2.147-16.3 00-29.747 6.473l-.537.158a.79.79 0 00-.537.979m-43.546 3.663c9.284 1.579 18.757 1.737 25.041 1.895a1.01 1.01 0 001.01-1.2l-.189-1.137q-.6-3.19-3.852-2.842l-22.01 2.368q-3.316.348 0 .916m235.732 23.463q6.537.284 5.59-7.61a1.263 1.263 0 00-1.769-1.011q-2.937 1.326-3.473 1.326-.569-.031-3.38-1.61a1.263 1.263 0 00-1.83.82q-1.675 7.8 4.862 8.085m-4.042 6.252h-1.042q-1.231 0-1.642 1.169-16.768 50.872-41.747 108.124a.663.663 0 00.6.947h18.916q.474 0 .568-.442l25.263-108.66q.253-1.138-.916-1.138m27.031 108.567q-.694.126-.852-.569-9.537-43.294-17.684-86.84-1.169-6.19-1.863-18.19-.095-1.262-1.074-1.768a1.263 1.232 19.2 00-1.8.853l-20.747 106.987a.916.916 0 00.916 1.074h67.799a1.232 1.2-11.1 001.136-1.674q-12.978-31.389-31.23-75.82-3.506-8.589-10.169-31.23-.095-.284-.379-.348l-1.516-.284q-.789-.158-.663.632l19.642 106.45q.095.442-.347.506zm-161.523-87.472q-16.452-.79-31.294 2.431-6.442 1.39-.316 3.79l21.157 8.242.127.063q.631.41.6 1.231a.884.884 0 01-.853.821q-9.694.348-20.747-3.473a.979.979 0 00-1.231 1.326c9.063 18.79 23.81 38.052 44.872 43.01 8.621 2.02 14.527-3.284 11.274-12.221q-.19-.569-.947-.505h-.032a.821.695 80 00-.568.979q.82 4.231-1.2 5.494-1.58.948-4.295-.379-19.484-9.41-35.368-27.189-3.031-3.379 1.263-1.863c9.79 3.474 28.42 8.337 36.442.063q7.294-7.484 10.579-17.431a2.337 2.274 31.3 00-.632-2.463q-26.905-24.505-57.694-6.19-3.379 2.022.506 1.39 13.168-2.147 28.42.884.347.063.379.38l.19.915a.6.6 0 01-.632.695m-81.914 26.147q-12.79 10.83-24.568 22.136-6.695 6.41 1.39 1.863 30.44-17.179 51.093-44.304a1.105 1.074 29.6 00-.474-1.674q-39.315-15.41-65.399 16.263-19.262 23.431-29.778 54.188-1.453 4.263 1.168.6 25.042-34.894 65.115-51.472 8.337-3.442 1.453 2.4m21.82 37.04q-7.294 22.548-27.6 33.063-7.673 3.948.727 1.99 11.779-2.716 23.147-8.337c4.168-2.084 5.937-5.21 8.905-7.926q3.663-3.284 2.337 1.326-.537 1.895-2.747 5.59-.758 1.2-.032 2.463l2.432 4.168q.473.853 1.452.758.569-.063 1.042-.347 1.453-.884.253-2.084l-1.516-1.548q-1.074-1.042.126-1.958 3.916-2.936 7.39-3.19 1.61-.094 2.873.885 2.116 1.674 4.674 5.747a3.632 3.632 0 002.4 1.61q4.484.727 6.19 4.359.568 1.2-.759 1.452l-12.315 2.274q-1.958.379-1.768-1.61.473-4.295-.253-6.032-2.558-6-4.01.442l-1.453 6.568a2.021 2.021 0 01-3.41.98l-6.253-6.253q-1.263-1.295-3.063-1.105-5.842.568-9.442 2.368-2.4 1.168.284 1.263 11.242.347 18.347 7.579 1.105 1.137 1.137 2.716c.41 16.326.852 25.389-3.916 36.599q-1.39 3.284.41 6.379l2.906 5.052a2.179 2.179 0 003.695.158c5.052-7.2 2.4-15.568 2.684-22.231q.663-15.19 1.547-23.905.474-4.8 5.179-5.873 10.516-2.432 19.263.157 4.2 1.264.915-1.642c-7.389-6.505-13.862-12.726-17.747-21.441q-14.873-33.631-14.62-71.746.031-3.38-2.021-.663-28.863 38.24-74.083 62.493-.632.347-.695 1.074-.031.442.032.79.158 1.136 1.294.947c27.695-4.769 50.684-23.242 67.104-46.231a.758.726 40 011.137-.095l.695.663q.221.221.126.506c-10.515 31.515-41.746 60.535-76.356 61.483q-2.684.094-.758 2.336.6.695 2.652 1.895 2.432 1.453 5.242 1.2 33.253-2.779 54.126-23.968 2.81-2.842 11.273-11.652 1.516-1.548.821.505m60.062 22.294c-18.505-9.757-31.167-32.778-37.357-53.21a.537.505 33.8 00-1.01.19c3.347 28.8 14.936 58.168 41.399 73.799q1.674 1.01 2.368-.821l7.832-20.968q.505-1.358-.537-2.369-26.62-26.241-43.326-53.683-3.473-5.716-1.168.569 11.747 32.273 32.21 56.02a.316.316 0 01-.41.473m-84.346 24.568c16.515-2.147 31.957 9.568 25.136 27.284q-2.526 6.568-10.168 6.095-2.18-.127-3.348-2.432-1.61-3.19.316-5.179 1.263-1.295 2.937-.663l2.779 1.042a1.39 1.358 16.8 001.831-.979l.253-.947a2.558 2.526-74.3 00-1.642-2.969q-6.095-2.052-9.947 2.116a7.484 7.452-48.3 00.6 10.768c9.979 8.527 19.484-.252 22.547-11.147q1.642-5.747-1.327-11.778-6.22-12.79-21.978-15.063c-21.537-3.127-32.084-6.063-51.568-.758q-1.61.442-1.8 2.116l-2.242 22.262a2.463 2.4-78.9 001.674 2.558c9.758 3.063 22.231.947 23.273-10.705q.632-6.947-6.884-9.568-3.979-1.39-5.873.252-3.98 3.506 1.358 3.285l1.547-.064q1.737-.063 2.368 1.58 1.263 3.41-3.979 5.683a5.463 5.431-38.3 01-5.431-.631c-5.716-4.295-3.253-13.105 3.6-15.474 9.79-3.347 27.947-2.052 32.336 9.821q1.232 3.41-1.168 6.063-2.558 2.81-7.105 2.4-.127 0-.127.095l-.095.916q-.094.758.695.82c9.632.727 13.99-6.062 10.295-14.872q-.695-1.674 1.137-1.927m71.84 6.032q-2.684 3.379-3.726 7.768-.41 1.61.474 3.031 4.294 6.98 12.41 10.169 1.579.6 2.305-.916.916-1.99.79-4.642-.127-2.305-1.642-.568-2.558 3-4.769 2.242a8.274 6.663 19.4 01-5.62-9.095q2.873-7.831 12.252-6.095a1.547 1.547 0 001.831-1.357l.127-1.2q.126-1.137-.98-1.264-11.273-1.484-16.136-1.989c-18.694-1.958-31.2 5.463-26.368 27.536 1.927 8.81 10.01 16.421 18.695 10.358 8.21-5.747 1.99-15.158-6.884-13.484q-2.053.41-.948 2.179.821 1.295 4.61 2.4 1.516.442 1.99 1.958 1.105 3.6-4.579 5.084a5.305 5.274 57.5 01-4.61-1.042c-6.853-5.684-8.463-18.979-2.432-25.642q8.495-9.41 22.768-6.631a.758.758 0 01.442 1.2m-192.343 26.747c-.095 6.157-1.674 12.315-4.453 17.873q-24.031 47.873-40.42 91.482-.221.569.158.821h.031q.6.443.98-.189c23.335-40.8 35.651-56.241 44.082-87.314q2.906-10.768 1.264-22.294-.064-.569-.664-.569h-.789q-.19 0-.19.19m144.061 21.63c-19.042-4.641-36.505-19.199-57.473-20.178q-8.905-.379-.6 2.905 14.78 5.874 43.957 18.032c25.358 10.61 49.263 9.726 76.957 4.642a.853.821-10.7 00.695-.98l-1.327-7.136q-.126-.758-.852-.505-31.263 10.515-61.357 3.22m-61.357 50.463q-9.473 62.525-32.336 122.903-11.242 29.589-29.305 70.104a1.453 1.421-73.1 001.042 1.99q8.18 1.42 12.505 6.852.98 1.2 1.737-.126c43.484-74.336 62.4-167.682 61.357-253.101q-.032-2.274-2.147-3.063l-15.505-5.779a1.453 1.453 0 00-1.958 1.263c-2.684 39.347-47.052 77.746-74.336 104.272q-1.136 1.074 0 2.21l8.463 8.463q.727.727 1.453-.063c5.62-6.252 13.863-14.336 19.326-18.41q30.694-22.926 48.788-38.02a.568.568 0 01.916.505m-84.693 16.358l2.179 11.905q.474 2.494 2.242.663 35.747-37.768 56.494-82.546 2.116-4.547-.948-.569-26.304 34.137-58.83 66.82a4.232 4.168-28.4 00-1.137 3.727m64.294 255.532h.031q.442.094.632-.474c32.936-101.998 53.872-210.533 49.262-316.384a4.516 4.484-75.1 00-2.084-3.631l-1.042-.663q-2.874-1.832-3.032 1.547c-5.431 106.103-22.42 212.333-44.241 318.847q-.126.663.474.758m137.902 128.776c17.021-30.789 26.21-62.493 14.653-97.135q-2.874-8.62-12.758-22.484-10.231-14.305-16.61-27.978c-42.22-90.598-47.43-194.018-54.062-292.005q-.127-1.926-1.927-2.59l-7.389-2.747q-1.516-.6-1.421 1.042 1.768 29.179 6.568 109.293c3.98 67.04 17.81 133.482 43.105 196.07q7.705 19.105 18.978 46.389 18.442 44.62 10.105 91.861-.442 2.463.758.284M559.626 517.69a.884.884 0 00-1.2.948q13.673 103.04 56.24 194.112.696 1.484.98-.126.095-.727-.032-1.106-18.63-54.599-31.168-110.934-1.578-7.137-15.347-78.883a.853.884 3.4 00-.568-.663zm37.483 70.167q17.179 32.02 40.484 56.336a1.516 1.516 0 002.242-.063q1.137-1.295 1.895-3.6.536-1.579-.474-2.905c-13.042-17.368-25.484-35.178-35.715-54.283-10.263-19.105-18.22-39.315-25.452-59.778q-.569-1.579-2.18-1.99-2.336-.663-4.041-.41a1.516 1.516 0 00-1.295 1.831q7.358 32.874 24.536 64.862m15.632-63.883l17.115 29.652q1.232 2.116 1.232-.347v-29.873q0-2.337-2.337-2.337h-14.337q-3.347 0-1.673 2.905m-1.453 45.6q12.22 21.441 28.8 40.61a1.547 1.547 0 002.589-.443q1.042-2.62 1.547-4.42.41-1.485-1.673-4.043-13.832-17.242-24.316-35.652T599.983 526.5q-1.137-3.095-2.621-3.474-1.8-.505-4.579-.947a1.547 1.547 0 00-1.705 2.02q8.02 24.032 20.21 45.474m-280.984 25.262a6.347 6.347 0 006.347 6.569c4.705 0 9.947-6.127 7.705-11.148q-2.179-4.926-4.831-7.926-1.2-1.358-2.621-.284-6.284 4.642-6.6 12.79m-.632 10.515q-.347-.126-.095.126 2.59 2.78 4.39 3.41 2.463.822.442-.978-.79-.663-4.737-2.558m4.169 25.263q-1.453-.158-2.021.284a2.463 2.242 27.9 001.484 4.105l11.02 1.453a3.916 3.947-8.5 004.074-5.527q-2.147-4.673-8.81-4.515-1.453.031-2.18 1.263l-1.01 1.642a2.621 2.621 0 01-2.557 1.295m476.454 148.418c-75.978-10.421-125.619-61.673-162.25-126.408a2.305.253-12.2 00-2.21.22q-.758.159-1.105.759a8.652 5.684 56.5 00.031 6.41c22.137 57.694 61.483 110.935 112.924 143.966q6.695 4.326 16.453 7.515 1.452.474 2.494-.631 16.863-18.031 34.168-29.62 2.653-1.77-.505-2.211M319.684 677.814a1.484 9.284 2.6 001.901-9.209 1.484 9.284 2.6 00-1.061-9.34 1.484 9.284 2.6 00-1.901 9.208 1.484 9.284 2.6 001.061 9.34m10.999-1.821q.158 2.747.347 5.494.126 1.674 1.137 2.18 1.453.725 1.42-.917-.03-3.536-.22-7.073-.126-2.747-.316-5.495-.126-1.673-1.137-2.179-1.452-.726-1.42.916.03 3.537.189 7.074m7.136 12.852h-1.357q-.916 0-.853.916.158 2.147 1.926 3.158a2.337 2.337 0 003.474-1.8c.852-8.432 4.8-12.884 2.242-21.6q-.221-.695-.947-.695h-.853q-1.263 0-1.042 1.263 1.768 9.316-1.232 17.81a1.453 1.453 0 01-1.358.948m12.47-7.424a1.926 4.042 17.8 003.07-3.259 1.926 4.042 17.8 00-.6-4.44 1.926 4.042 17.8 00-3.07 3.26 1.926 4.042 17.8 00.6 4.439m-24.69-4.386q-.064.947.347.947 2.842.095 1.232-1.99-.443-.568-1.232.253-.316.316-.347.79m4.831 9.473a.79.79 0 00-1.263-.726q-1.674 1.263-1.674 4.295 0 3.315 2.242.568.158-.19.695-4.137m214.512 13.168q-.41 33.979 1.768 99.472 1.137 33.758-4.39 174.47-2.02 50.873 26.337 83.368 1.2 1.357 3.032 1.357h12.252q1.61 0 .916-1.452-9-18.82-12.537-38.368-6.915-38.336-9.41-77.272-1.674-25.863-6.6-155.524-1.105-29.336-11.052-86.082a.159.159 0 00-.316.031m-86.335 348.404a1.61 1.547 20.2 002.052-.915q9.884-26.684 18.695-55.8c29.146-96.376 49.23-194.459 51.599-292.352q0-.22-.537-.568h-.032a.41.284-72.7 00-.473.379Q510.9 826.84 469.596 949.239q-10.042 29.81-19.926 59.746-5.274 16.042-7.358 31.61-.19 1.327 1.074 1.8zm177.66-348.467q-.064-.158-.222-.126l-.757.253q-.474.126-.348.631 31.42 136.134 125.935 235.985 3.158 3.38 6.442.095l14.747-14.747q3.252-3.253-.6-5.779-16.358-10.61-32.936-27.22c-51.884-51.884-88.862-119.43-112.261-189.092m-1.895 82.988q7.168 100.704 56.715 186.06a1.295 1.263-19.9 001.326.6l22.673-4.168q.569-.127.284-.6-50.02-87.283-79.04-185.586-1.8-6.095-2.18.284 0 .316.222 3.41m-296.995 274.195q1.2-87.093 3.348-148.702c1.01-29.305 1.2-64.673-8.021-93.504q-2.495-7.831-2.81.41-.916 22.484-.474 44.21 1.39 69.536 6.126 197.112.031.664.695.664h.947a.19.221 5.7 00.19-.19m271.826-44.4q-4.137-14.272-5.747-23.588-14.874-86.399-33.158-172.134-.063-.252-.22-.316-.127-.063-.348-.031-.442.063-.442.663c2.084 67.072 8.715 134.366 38.115 195.533q.284.569.884.348l.884-.348q.063-.031.032-.126M482.1 831.957q-.316.948-.284 2.116.063 1.2.663.19.916-1.485.316-2.369-.41-.663-.695.063m53.273 64.452q-1.832 14.81-6.221 26.273c-7.042 18.442-22.263 46.42-24.979 66.883-3.41 25.326 3.98 43.546 16.642 65.335q1.579 2.716 1.105-.379c-4.99-33.22 2.274-63.725 8.432-92.587 4.736-22.137 6.536-46.357 6.947-65.336q.032-.537-.505-.568l-.853-.095q-.505-.063-.568.474"/><path d="M339.556 592.088l-4.326-1.61a1.263 1.263 0 01-.726-1.674q1.137-2.653 3.947-1.8 2.463.79 2.495 4.105a1.042 1.01 9.8 01-1.39.979m-5.62 1.358q1.578.284 4.641.22a1.2 1.2 0 011.137 1.611l-.347.885a2.053 2.021 9.3 01-1.863 1.326q-3.948.031-5.716-4.61-.442-1.2.568-.411.727.6.916.726.284.19.663.253"/></g></svg>